<svg id="Camada_1" data-name="Camada 1" xmlns="http://www.w3.org/2000/svg" viewBox="300 375 480 330"><path d="M328.84,380.55h.24c2.21,1.32,4.55.43,6.85.41.3,0,.61-.17.9-.12a14.76,14.76,0,0,0,3.34.59c1.56-.12,3.05-.74,4.72-.44a16.2,16.2,0,0,0,3.52-.19,1.59,1.59,0,0,1,.66.18c1.42.61,2.7,0,4-.43h.72a2.93,2.93,0,0,0,2.3.94c.51,0,1.06-.31,1.5-.18,2.37.7,4.66.06,7-.23a11.51,11.51,0,0,1,4.42.08c1.31.37,2.46-.2,3.69,0a13.59,13.59,0,0,0,2.47,0c1.56,0,3.11-.09,4.67-.09s3.2-.92,4.58.58c.1.12.56-.11.86-.15,1.13-.15,2.36-.65,3.36-.36a8.08,8.08,0,0,0,4.52.05,4.67,4.67,0,0,1,3.06-.07c1.74,1,3.47-.37,5.32.47,1.28.58,3.19-.32,4.83-.44a11.85,11.85,0,0,1,4.28,0c1.43.44,2.72-.4,4.05.06.33.11.87.05,1,.26.52.8,1.21.59,1.87.43,1.5-.37,3.11.26,4.57-.58a3.36,3.36,0,0,1,1.36-.24,5.88,5.88,0,0,1,1.11,0c.49.05,1,.15,1.47.22s1.25.19,1.87.22c1,0,1.93,0,2.88.05a28.16,28.16,0,0,0,3.26.4c2-.07,3.89-.37,5.84-.53,1.19-.1,2.39-.09,3.59-.15.61,0,1.23-.11,1.84-.19a6.22,6.22,0,0,1,1.5-.26c2,.25,3.94.75,5.92.84,2.42.11,4.85-.08,7.28-.16,1,0,2-.16,3.06-.16a21.53,21.53,0,0,0,4.46.07,8.69,8.69,0,0,1,3.7-.22,29.55,29.55,0,0,0,5.41.07,5.79,5.79,0,0,0,1.71,0,2.65,2.65,0,0,1,2.52,0,2.35,2.35,0,0,0,1.08.1,31,31,0,0,1,5.71.18,7.88,7.88,0,0,0,3.13.12,17,17,0,0,1,2,.07c.92-.05,1.83-.24,2.75-.29,1.31-.07,2.8-.46,3.88,0a2.94,2.94,0,0,0,2.13.12,5.75,5.75,0,0,1,2.91-.18c2,.8,3.85,0,5.76.22.65.07,1.43-.26,2,0a1.39,1.39,0,0,0,1.21,0,6.46,6.46,0,0,1,3.08-.54,10.87,10.87,0,0,0,3.81.5c1.81-.22,3.65-.22,5.48-.27a9.6,9.6,0,0,1,3,.1,6.45,6.45,0,0,0,3.24-.09c.33-.06.73-.23,1-.1,1.52.78,3.07,0,4.61.15.85.06,1.74-.42,2.6-.38,1.39.06,2.78.37,4.17.55a9.47,9.47,0,0,0,1.3.09c.78,0,1.56,0,2.34-.07s1.73-.24,2.59-.24,1.81.24,2.71.2c1.81-.09,3.61-.34,5.42-.43a7.21,7.21,0,0,1,1.67.35,1.21,1.21,0,0,0,.56,0,6.8,6.8,0,0,1,4.81-.05c1.48.56,3.35.1,5,.06.88,0,1.76-.23,2.63-.18a29.82,29.82,0,0,0,3.36.39,12.82,12.82,0,0,0,4.5-.61,2.72,2.72,0,0,1,1.3,0c1.16.13,2.3.34,3.46.45a37.33,37.33,0,0,0,4.09.2c1.12,0,2.24-.32,3.37-.38a5.15,5.15,0,0,1,2.62.21c1.79,1,3.51.4,5.27.2,1.53-.16,3-.34,4.58-.45,1-.07,2,0,3.05,0a7.51,7.51,0,0,1,2-.17,10.35,10.35,0,0,0,3.55.21,29.61,29.61,0,0,1,3,.12c.71,0,1.43-.05,2.14-.08l1.31-.06,2.74-.15c.83,0,1.89-.36,2.43,0a2.16,2.16,0,0,0,1.71.32c.82-.05,1.65,0,2.48,0,.46,0,.91-.14,1.37-.15,1.66,0,3.32,0,5,0a8.76,8.76,0,0,0,1.83.1c1.08-.21,2.08-.4,2.61.31,2.9-.15,5.54-.34,8.18-.39a42.16,42.16,0,0,1,5,.22c2.92.27,5.86-.77,8.78.19A9.79,9.79,0,0,0,666,382a11.29,11.29,0,0,0,2.08-.21c1.57-.27,3.12-.69,4.7-.84.68-.07,1.39.51,2.11.56,1.63.13,3.27.16,4.9.14s3-.16,4.44-.24a17.06,17.06,0,0,1,2-.08c.32,0,.71.47.92.38,1.39-.59,2.71-.15,4.11,0a59.87,59.87,0,0,0,6.55-.16c2.13,0,4.25,0,6.38,0,.82,0,1.65.21,2.47.17,2.59-.11,5.17-.3,7.76-.44a2.06,2.06,0,0,1,.8.15,6.76,6.76,0,0,0,4.22,0,8.81,8.81,0,0,1,3-.34c2,.11,4,.53,6,.57,2.76.07,5.53-.11,8.29-.17.41,0,.82.1,1.24.1,1.28,0,2.55-.09,3.83-.09.48,0,1,.25,1.42.23,2.72-.13,5.4-.66,8.16-.06a14.4,14.4,0,0,0,3.92-.12c3.32-.25,6.65-.51,10-.79,1.89-.15,3.31,1,4.8,1.82a39.76,39.76,0,0,1,4.55,3.11c.34.25.75.85.66,1.16-.25.91.26,1.44.69,2.08s.73,1.49,1.23,2.14c1.36,1.74,1.07,3.83,1.29,5.8.06.61-.22,1.25-.2,1.87.05,1.87.15,3.74.28,5.6,0,.23.27.44.42.66v.24c-.44,1.29-.93,2.56-1.33,3.86-.58,1.93-1.36,3.7-3.28,4.7-.14.07-.36.15-.37.24-.13,1.66-1.55,2.35-2.52,3.38a14.8,14.8,0,0,1-1.46,1.5c-1,.81-2.65.68-3.23,2.18-.06.15-.49.2-.75.21-.77,0-1.53-.15-2.08.75-.4.66-1.15.63-2,.52-1.39-.2-2.76.36-4.13.57a87.52,87.52,0,0,1-10.5.77c-2.24.06-4.49-.35-6.74-.42-2.41-.08-4.82,0-7.23,0-2.71,0-5.41-.21-8.11-.21-2.27,0-4.53.13-6.8.23-.21,0-.41.19-.62.29-.4.17-.8.35-1.21.51-1.48.58-3,.94-4.1,2.34-.38.51-1.31.61-1.66,1.13-1,1.44-1.83,3-2.69,4.51-.1.16,0,.43,0,.64a3.93,3.93,0,0,1-.32,1.09c-.35.6-.84,1.12-.41,1.91a.83.83,0,0,1,0,.8c-1.43,1.38-.34,3.16-.73,4.71-.17.7-.07,1.56-.28,2.37s.07,2.09-.31,2.94a6.29,6.29,0,0,0-.12,4c.11.6.15,1.21.29,1.8s.34,1,.46,1.5c.27,1.2.11,2.81.85,3.53,1.49,1.48,1.39,3.66,2.75,5.11.28.3.11,1,.35,1.33a6,6,0,0,1,1.4,2.69c.27,1.83,1.48,3.52,2.19,5.3a5.45,5.45,0,0,1,0,1.78c.08.08.54.29.58.55.3,2.1.49,4.22.8,6.32a16.79,16.79,0,0,0,.69,2.15,4.27,4.27,0,0,1,.29,1.47c-.08.92-.56,1.84.58,2.51.22.13.23.64.3,1,.29,1.45.57,2.9.83,4.36.13.68,0,1.52.37,2,.74,1.05.87,2.32,1.56,3.43s.48,3.12.88,4.67,1.14,3.33,1.72,5c.3.89.63,1.79.87,2.7.15.57.11,1.18.21,1.76.14.9.7,1.65.41,2.74-.2.77.43,1.77.7,2.67.19.63.69,1.33.56,1.88a2.31,2.31,0,0,0,1.4,3c.24.11.3.66.37,1,.16.76.25,1.53.38,2.3s.26,1.3.39,2c.39.56,1,1,.45,2a.75.75,0,0,0,.2.74c.78.49.34,1.26.54,1.83a24.23,24.23,0,0,1,1.12,5.32c.1,1.13,1.42,2,.75,3.34a.48.48,0,0,0,.17.41c1,.43,1.22,1.42,1.56,2.31a30.68,30.68,0,0,1,1.1,3c.36,1.38.51,2.81.86,4.18.28,1.1,1.63,1.83,1.12,3.24,0,.09.23.37.41.45.82.4,1.23.9.88,1.89a2.44,2.44,0,0,0,0,1.51c.47,1.3,1.08,2.55,1.62,3.83a7.62,7.62,0,0,1,.45,1.4c.38,2,.71,4,1.09,5.93a3,3,0,0,0,.32.71,21.58,21.58,0,0,1,1,2.27c.33,1.12.43,2.31.82,3.4.59,1.64,1.61,3.17,2,4.85.56,2.52,1.4,5,1.06,7.71a.81.81,0,0,0,.09.46c.78,1.36,1.67,2.68,2.35,4.09a16.49,16.49,0,0,1,.9,3.05c0,.2-.13.45-.15.68a2,2,0,0,0,0,.93c.37.87.85,1.69,1.23,2.55.78,1.75.81,3.19-.18,4-.11,1.79.84,3.26,1.21,4.9.5,2.17,1.06,4.58,2.86,6.25.79.74.59,1.93,1,2.47a7.29,7.29,0,0,1,1.48,3.61c.18,1.57,2,2.74,1.09,4.56,0,.06.09.19.13.3a25.74,25.74,0,0,1,1.16,3.85A10.71,10.71,0,0,0,760,633a18.18,18.18,0,0,1,1.66,4.69,35.37,35.37,0,0,1,.34,4.14c0,.52.46,1.07.37,1.54a8.87,8.87,0,0,0,.77,5.49,36,36,0,0,1,2.06,4.59,11,11,0,0,0,.86,2.8,4.75,4.75,0,0,1,.91,3.48c0,.19.15.43.24.65.33.78.66,1.57,1,2.36a7.54,7.54,0,0,1,.2.82c.24.8.87,1.73.66,2.38-.52,1.62.72,2.37,1.26,3.47a2.93,2.93,0,0,1,.5,1.28c0,.74-.34,1.45-.45,2.19a1,1,0,0,0,.26.83,1.25,1.25,0,0,1,.54,1.81,1.19,1.19,0,0,0,0,.7,12.76,12.76,0,0,1,.54,2.61c0,1,.34,2.22-1,2.63a17.11,17.11,0,0,1,.36,2,7.48,7.48,0,0,1,0,2.41c-.36,1.37.19,3.06-1.33,4.08-.2.13-.18.63-.23,1s0,.64-.11.84c-.57.84-1.19,1.65-1.83,2.44-.82,1-1.65,2-2.52,3a1.45,1.45,0,0,1-.84.31,25.69,25.69,0,0,0-3.44.53c-1.21.39-2.74.05-3.58,1.4H756a6,6,0,0,0-2.14-.67c-2.32.19-4.66-.65-7,.17a1.43,1.43,0,0,1-.79-.14c-.88-.3-1.74-.63-2.62-.94a18.6,18.6,0,0,1-9.42-6.6c-.57-.8-1.74-1.1-1.68-2.48,0-.81-.68-1.63-.9-2.48-.25-1-.31-2.06-.46-3.09-.09-.57-.16-1.14-.29-1.7-.09-.36-.33-.69-.4-1-.11-.68-.13-1.37-.23-2s-.06-1.48-.4-1.65c-.91-.48-.47-1.08-.32-1.61a2.18,2.18,0,0,0-.43-2.49,3.46,3.46,0,0,1-1-1.71,33.29,33.29,0,0,1-.51-4.22c-.07-1.14-1.29-2-.66-3.33,0,0,0-.19-.08-.22-.83-.41-.48-1.21-.61-1.85a3.56,3.56,0,0,0-.2-1,9,9,0,0,1-1.34-4.3c0-1.12.31-2.38-1.08-3-.07,0-.12-.21-.11-.32.09-1,.18-2.06.27-3-.55-1-1.09-1.95-1.6-2.91a.56.56,0,0,1,0-.42,5.64,5.64,0,0,0-.84-5.5c-.46-.63-.6-1.46-1.53-1.82a2,2,0,0,1-1-1.61,4.34,4.34,0,0,0-1-2.73,1.9,1.9,0,0,1-.17-1.07c0-1.4.21-2.8.16-4.2a12.48,12.48,0,0,0-.55-2.95c-.29-1-.78-2-1.08-3a4.18,4.18,0,0,1-.27-2.07c.25-1,.6-1.69-.23-2.68a24.53,24.53,0,0,1-2-3.66c-.34-.58-.78-1-.33-1.76.09-.14-.16-.48-.24-.72a10.24,10.24,0,0,1-.65-2,8.43,8.43,0,0,0-1.91-5,1.23,1.23,0,0,1-.24-1c.64-2.26-.35-4.36-.93-6.37a8.47,8.47,0,0,0-2.77-4.52c-.16-.12-.11-.51-.17-.78s-.14-.58-.23-.87a19.15,19.15,0,0,1-.91-3.13,5.83,5.83,0,0,0-1.81-3.63,3.64,3.64,0,0,1-.93-1.8c-.26-.8.44-1.79-.5-2.4a1.18,1.18,0,0,1-.48-1.81c.14-.29-.3-.9-.53-1.33s-.52-.65-.67-1c-.39-.94-.71-1.92-1.06-2.88-.12-.88.1-1.86,0-2.81a3.27,3.27,0,0,0-.89-2.13c-1.37-1-1.21-2.8-2.35-3.93-.84-.84-1.3-2.07-2.6-2.44-.47-.13-.9-.37-1.37-.52a18.6,18.6,0,0,0-3.77-1.1,40,40,0,0,0-5.24.19c-1.19.06-2.38.2-3.56.23-1.69,0-3.38,0-5.06,0a29.55,29.55,0,0,0-4.69-.14,29.57,29.57,0,0,1-6.31,0c-1.54-.1-3.09.09-4.64.12-1.82,0-3.64.1-5.46,0-1.41,0-2.82-.45-4.22-.39-2.51.1-5,.51-7.53.64a20.88,20.88,0,0,1-4.87-.27,6.09,6.09,0,0,0-2.72-.2,9.76,9.76,0,0,1-2.42,0c-1.16,0-2.33-.06-3.49,0s-2.61.21-3.91.23c-2.56,0-5.12,0-7.68,0-1,0-2-.26-3-.36a3.13,3.13,0,0,0-.76.16,35.77,35.77,0,0,1-3.85.46c-1.16,0-2.33-.29-3.5-.35-1.66-.1-3.36,1.1-5-.11-.06,0-.16,0-.24,0-1.94,0-3.87,0-5.81,0-1.53,0-3.06,0-4.58,0a65.54,65.54,0,0,1-7.25.36c-1.39-.1-2.77-.14-4.16-.15h-4.83a7.86,7.86,0,0,1-2.75-.07,3.68,3.68,0,0,0-2.66.07,5.27,5.27,0,0,1-3.63,0,2.69,2.69,0,0,0-1.1-.11,25.13,25.13,0,0,1-3.67.11,31,31,0,0,0-7.27-.1c-1.93.24-3.92.87-5.91.1a4.44,4.44,0,0,0-1.78-.24c-2.37.12-4.74.3-7.11.45a12,12,0,0,1-1.34,0c-1.07-.07-2.23-.46-3.19-.17a6.72,6.72,0,0,1-3.28-.07,11.16,11.16,0,0,0-2.16-.15c-1,0-2,.08-3,.14-1.43.07-2.86.2-4.29.22-.82,0-1.65-.13-2.48-.17-.5,0-1,0-1.53.06-.3,0-.6,0-.91,0l-8.4-.15c-.62,0-1.23-.12-1.85-.18a2.78,2.78,0,0,0-.95,0c-2.25.6-4.54.08-6.8.22a41.51,41.51,0,0,1-4.16.2c-1.77,0-3.54-.29-5.31-.42a2.24,2.24,0,0,0-.92.13c-2.2.8-4.48.13-6.71.31a.11.11,0,0,1-.11,0c-1-1.14-2.56-.24-3.72-.88-.12-.07-.36.1-.55.14a12.55,12.55,0,0,1-1.6.31c-1.71.11-3.43.18-5.15.24a4.17,4.17,0,0,1-1.8,0c-1.71-.78-3.38-.06-5.06,0s-3.36.46-5,.27a32.15,32.15,0,0,0-7.9-.2,46.19,46.19,0,0,1-5.11.46c-1,0-2.07-.36-3.12-.43a43.2,43.2,0,0,1-5.07-.1c-2.13-.37-4.42.17-6.65.32a8.92,8.92,0,0,1-2.56.14,12.35,12.35,0,0,0-6-.16,3.93,3.93,0,0,1-2.19.12,9.14,9.14,0,0,0-5.48-.2c-1.92.47-4,.91-5.91-.27-.22-.13-.6,0-.91,0-1.44,0-2.88,0-4.32-.14-.94-.07-1.86-.36-2.8-.45-1.38-.13-2.78-.2-4.16-.24a8.55,8.55,0,0,0-3.25.12,20,20,0,0,0-4.26,2.58c-.6.45-1,1.06-1.83,1.31a11.52,11.52,0,0,0-2.73,1.48,6.38,6.38,0,0,0-1.8,1.33c-.71.92-.89,2.32-2.47,2.33-.14,0-.39.31-.42.5-.12,1,.13,2.09-.94,2.77-.08,0,0,.31-.05.46-.39,1.85-.81,3.67-2.22,5.09-.38.38-.86,1-.83,1.4a9.46,9.46,0,0,1-.29,3c-.33,1.42-.44,2.89-.75,4.31-.13.59-.82,1.17-.75,1.68.24,1.73-.74,3.1-1.26,4.55a12.76,12.76,0,0,0-1,5.46,5,5,0,0,1-1,3.42c-.92,1.35-.7,2.86-1.17,4.23-.31.88.13,2-.94,2.73-.1.07-.11.28-.14.44-.16.91-.29,1.84-.48,2.75s-.47,2-.73,3a4.16,4.16,0,0,1-.28.74c-.53,1.27-1.53,2.41-1,4a.7.7,0,0,1-.23.63c-1.11.6-1,1.71-1.25,2.7a10,10,0,0,1-.86,1.69,3.72,3.72,0,0,0-.29.93c-.09.44,0,1-.22,1.31a11.85,11.85,0,0,0-.94,2.19,22.8,22.8,0,0,0-.86,3.78c-.5,2-.74,4-1.24,6-.41,1.69-1.05,3.32-1.54,5-.17.59-.14,1.24-.3,1.84-.08.33-.4.61-.53.94-.37.92.14,2.14-1,2.83a1.72,1.72,0,0,0-.71,2,3.3,3.3,0,0,1-1.1,3.52,3.25,3.25,0,0,0-.82,1.62c-.37,1.58-1.35,3-1,4.76,0,.06-.06.14-.08.21a58.42,58.42,0,0,0-1.83,6.71,28.39,28.39,0,0,1-1.22,3.25c-.29.73-.65,1.43-.91,2.17-.76,2.12-1.58,4.24-2.19,6.4-.29,1-1.26,1.59-1.47,2.41-.31,1.18-1.34,2.2-.95,3.6.07.24-.34.62-.51.94l-1.13,2.16a5,5,0,0,1-.49,1c-.52.65-1.18,1.2-1.63,1.89a7.55,7.55,0,0,1-2.67,2.51,2,2,0,0,1-.68.08c0,.82-.38,1.3-1.37,1.3-.45,0-.89.34-1.34.51s-.89.48-1.18.36c-1-.4-1.5.29-2.19.61a3.1,3.1,0,0,1-1.07.33c-1,.08-2,.47-2.91-.21,0,0-.25,0-.31.12a2.34,2.34,0,0,1-2.78.55c-1.61-.66-3.64.5-4.94-1.2,0,0-.29.1-.42.07-1.14-.26-2.31-.3-3.19-1.32-1.41-1.62-3-3.09-4.4-4.73-.59-.7-1.54-1.3-1.34-2.5,0-.22-.32-.51-.52-.75-1.37-1.61-1.46-3.57-1.49-5.54a45,45,0,0,0-.05-4.79,2.2,2.2,0,0,1,.33-1.54,10.85,10.85,0,0,0,1.44-3.62,3.25,3.25,0,0,1,.83-2.25c.36-.35.76-.77.29-1.48-.28-.42-.1-1.17-.05-1.77s.19-1.42.33-2.31a10.19,10.19,0,0,0,1.15-2.41,21.52,21.52,0,0,1,.79-3.81c.5-1.26.25-2.78,1.05-4,.17-.28.06-.72.17-1a13.44,13.44,0,0,0,.78-2c.23-1.43.23-2.91,1.45-4,.17-.15.19-.5.24-.76a6.73,6.73,0,0,1,.41-2.26,18.08,18.08,0,0,0,1.79-5.21,3.88,3.88,0,0,1,.77-1.53,4.23,4.23,0,0,0,1.4-3.29c0-.17.19-.39.32-.57a9.71,9.71,0,0,0,1-1.28c.21-.42.1-1.1.39-1.38,1-1,.91-2.33,1.38-3.48.23-.59,0-1.37.14-2,.26-.88.78-1.69,1.06-2.57.4-1.27.68-2.57,1-3.87.06-.26.11-.66,0-.82-1.19-1.28,0-2.32.55-3.14s.44-1,0-1.55a1.36,1.36,0,0,1,0-2c.56-.64,1.24-1.67,1.09-2.37-.36-1.79,1-3.14.88-4.82a3.11,3.11,0,0,1,.4-1.77,6.16,6.16,0,0,0,1.34-4.21c-.08-.75-.4-2.12,1-2.6.14,0,.11-.64.11-1,0-.17-.17-.36-.12-.51a14.05,14.05,0,0,1,1.16-3.51,4,4,0,0,0,.79-3.48c-.19-.75.85-1.93,1.53-2.74a4.17,4.17,0,0,0,1-2.43c.15-1.29-.86-2.61.13-3.86,0,0-.07-.12-.09-.18a2.93,2.93,0,0,1,0-2.92c.09-.15.2-.46.14-.51-.68-.57-.13-1,.07-1.56.26-.71,0-1.71,1.17-1.89,0,0,0-.23,0-.34.17-1.55.31-3.11.52-4.65a4.93,4.93,0,0,1,.45-1.85c.6-1,1.37-1.94,2.07-2.91l-.68-.89c1.49-1.28,2.53-4.49,2-6.09.8-.66.49-.74.84-2.13.23-.91.13-2.24,1.36-2.88.29-.15.28-1,.33-1.5,0-.29-.23-.77-.12-.86.77-.59.33-2.16,1.78-2.2.1,0,.26-.29.29-.46.27-1.46.49-2.93.77-4.39,0-.2.25-.37.4-.54a4.26,4.26,0,0,0,.55-.58,22.33,22.33,0,0,0,1.13-2.17,8,8,0,0,0,.34-1.48,2.8,2.8,0,0,1,.15-.65c.61-1.5,1.66-2.84,1.52-4.61-.06-.67-.25-1.62.93-1.73.09,0,.21-.25.22-.39a11.1,11.1,0,0,1,.94-3.84,6.59,6.59,0,0,0,.22-1,15.14,15.14,0,0,0,.78-3.73,2.41,2.41,0,0,1,.47-1.72,5.85,5.85,0,0,0,1.11-3.09c.42-1.86.29-3.84,1.5-5.49.14-.2.07-.57.07-.86a13.35,13.35,0,0,1,.05-2.37c.11-.53.64-1,.85-1.51.34-.87.56-1.79.84-2.68.19-.62.37-1.25.6-1.85.49-1.29,1.05-2.55,1.51-3.85.16-.47,0-1,.21-1.51.27-.78-1-1.81.44-2.33a3.18,3.18,0,0,1,.74-3.6c.69-.59,1.37-1.15,1.24-2.28a9.51,9.51,0,0,1,.35-2.19c.1-.69.41-1.52.15-2.07-.67-1.39.47-2.34.76-3.43.14-.51.67-1.07.71-1.81a11.07,11.07,0,0,1,.4-1.95c.3-1.17.63-2.33.95-3.49s.59-2,.86-3.05.55-2.28.81-3.42c.11-.49.19-1,.32-1.69l-.45-.91a27.45,27.45,0,0,1,1.25-2.59c.56-.88,1.52-1.58.86-2.83-.06-.11.27-.37.33-.58.36-1.3.69-2.61,1-3.92.06-.23.1-.58.25-.66,1.4-.71,1.28-2.17,1.5-3.32.4-2.15.49-4.35.7-6.53,0-.29,0-.58,0-.86a3.11,3.11,0,0,1,.26-1.1,8.16,8.16,0,0,1,.94-1.13l-1-1.12.33,0a12.18,12.18,0,0,1,.28-2.79c.29-.89-.18-1.25-.64-1.78a2,2,0,0,1-.52-1.18c0-.63.09-1-.77-1.31s-1.21-1.26-1.76-2a13.58,13.58,0,0,0-1.72-2.21c-.84-.7-2-1-2.39-2.2a.93.93,0,0,0-.6-.47c-2-.57-4-1.11-6-1.62-.28-.07-.6.09-.9.07-1.08-.11-2.16-.22-3.23-.37-1.3-.19-2.68-.83-3.86-.55a23.6,23.6,0,0,1-5.33.79c-1.31,0-2.61.16-3.91.22-.89,0-1.77,0-2.66,0-2,0-4,0-6,0s-3.93,0-5.9-.07c-1.19,0-2.39,0-3.57-.12-.7-.08-1.36-.49-2.06-.55-1-.1-2.09,0-3.13,0a4.58,4.58,0,0,1-1.33-.38L314,420.38l-3-1.12a6.91,6.91,0,0,1-1.48-.58,20.79,20.79,0,0,1-2.74-2.2c-.43-.42-.48-1.25-.93-1.65-1-.92-2.14-1.72-2.61-3.12-.4-1.21-.95-2.38-1.25-3.62-.24-1-.17-2.09-.34-3.12-.05-.33-.43-.61-.66-.91v-.72c.2-.15.56-.3.57-.46.11-2.29.18-4.58.25-6.87-.1-.17.18-.25.27-.43,1-1.93,2.05-3.84,2.9-5.84a2.2,2.2,0,0,1,1.19-1.39,15.54,15.54,0,0,0,3-1.94,22.63,22.63,0,0,1,7.19-4.26c1.51-.48,3-1.57,4.71-.89,1.41-1.08,2.92,0,4.4-.11A9.23,9.23,0,0,0,328.84,380.55Zm250,91.47c0-1.6-.06-3.2-1.75-4.1-.08,0-.11-.2-.16-.3a24.11,24.11,0,0,0-1.59-3,4.06,4.06,0,0,0-1.65-1.06,16.58,16.58,0,0,0-2.19-.74,17.51,17.51,0,0,0-2.55-.7c-1.63-.25-3.3-.25-4.9-.61-1.38-.3-2.66-.83-3.94.22-.14.11-.44.07-.66,0-.74-.11-1.47-.27-2.21-.37s-1.5-.1-2.24-.19c-.58-.07-1.15-.24-1.73-.3-1.54-.16-3.08.73-4.63,0-.14-.06-.37.14-.55.13-1.85-.12-3.65.93-5.53.1a4.37,4.37,0,0,0-1.77-.23c-1.5,0-2.88.81-4.51.33-1.26-.38-2.71,0-4.07-.13a16.18,16.18,0,0,0-3.12-.37A23.31,23.31,0,0,1,522,461c-2.26-.35-4.43.36-6.62.79-1,.2-2.06.42-3.07.68a7.09,7.09,0,0,0-3.58,1.55c-.11.11-.39,0-.58.08a7.77,7.77,0,0,0-5.14,3.49c-.58.88-1.32,1.66-2,2.5a6.57,6.57,0,0,0-.63,1.09c-.42.87-.74,1.78-1.22,2.6a11.49,11.49,0,0,1-1.41,1.78c-.77.88-1.59,1.7-2.37,2.58a3.59,3.59,0,0,0-.71,1.06c-.59,1.59-1.2,3.18-1.66,4.81a39.61,39.61,0,0,0-1,4.7c-.14.95.07,1.94-.06,2.89s-.6,2.06-.72,3.12a14.31,14.31,0,0,1-1.12,4.82,1.84,1.84,0,0,0,0,.71,29.08,29.08,0,0,1,0,4.67,7.12,7.12,0,0,0,1.88,5.84c1.21,1.45,1.94,3.26,3.65,4.46a12.62,12.62,0,0,0,4.15,2.14c1.44.36,2.92.55,4.32,1s2.57,1.09,3.85,1.65a.66.66,0,0,0,.42.09c2.39-.86,4.88-.48,7.33-.58a2.31,2.31,0,0,0,1.13-.21,3.27,3.27,0,0,1,2.62-.38,10.53,10.53,0,0,0,1.67.18c1.07,0,2.14-.11,3.22-.12a18,18,0,0,0,4,0,30.2,30.2,0,0,1,5.44-.4c.33,0,.69.2,1,.13,1.81-.4,3.64.82,5.44-.08.06,0,.2.14.3.14,1.68.11,3.37.08,5,.31,2.79.39,5.61-1.32,8.37.15.1.05.28-.1.42-.12,1.69-.29,3.39.11,5.12-.21a21.72,21.72,0,0,1,4.75.15,18,18,0,0,1,1.94,0c2.64.39,5.29,1.23,7.9-.14a.51.51,0,0,1,.34-.05,8.57,8.57,0,0,0,3.77-.13c2-.25,3.14-1.7,4.71-2.49a.41.41,0,0,0,.16-.31c.19-1.52,1.69-1.62,2.59-2.36.36-.28,1-.41,1.12-.76a6.41,6.41,0,0,0,.8-2.78,6.83,6.83,0,0,1,1-3.16,8.12,8.12,0,0,0-.08-6.57c-.27-.63-.84-1.3-.75-1.87a6.56,6.56,0,0,0-.28-3.48,39.32,39.32,0,0,1-1.1-4.17c-.05-.19-.16-.43-.09-.56.54-1-.07-1.69-.68-2.42-.25-.3-.22-.84-.34-1.27a13.08,13.08,0,0,0-1-3.24,3.62,3.62,0,0,1-.6-2.85,2.22,2.22,0,0,1-1.42-2.07,2.83,2.83,0,0,0-1.42-2.55c-.16-.08-.15-.58-.13-.88A2.62,2.62,0,0,0,578.88,472Z"/></svg>