<svg id="Camada_1" data-name="Camada 1" xmlns="http://www.w3.org/2000/svg" viewBox="305 320 470 440"><path d="M473.73,443.88c2.81,3.14,3.22,7,3.29,10.94a12.29,12.29,0,0,0,0,2.71c1.36,5.64,1.1,11.29.61,17-.36,4.3-1.67,8.43-1.81,12.77-.07,2-1,4-1.48,6.05-.84,3.29-1.44,6.62-2.88,9.75a65.56,65.56,0,0,1-4.53,8.58,20,20,0,0,1-6.65,6c-2.22,1.35-4.62,2.39-6.95,3.56A6.75,6.75,0,0,0,452,522c-3,2.62-6.65,4.08-9.79,6.4a2.55,2.55,0,0,1-1.06.48c-3.74.52-7.19,2.21-11,2.47a22.67,22.67,0,0,0-9.68,2.54,10.11,10.11,0,0,1-3.69,1.22c-3.89.46-7.8.76-11.7,1.1-3.36.28-6.7.6-10,1.16a21.77,21.77,0,0,1-11.22-.58c-2.67-1-5.5-1.54-8.24-2.35-1.12-.33-2.2-.8-3.29-1.23a10.55,10.55,0,0,0-2.15-.92c-3.62-.5-6.43-2.79-9.61-4.23a11.56,11.56,0,0,1-1.91-1.31c-.53-.38-1-.83-1.56-1.17-4.4-2.79-8.82-5.55-13.21-8.35a73.35,73.35,0,0,1-8.12-5.4c-1.86-1.56-3.17-3.77-4.67-5.74-.47-.61-.67-1.44-1.16-2-3.44-4.11-5.21-9-6.45-14.07a23.94,23.94,0,0,0-1.34-3.66c-.5-1.2-1.14-2.34-1.65-3.54-.85-2-1.42-4.19-2.81-6a6.35,6.35,0,0,1-.88-2.16c-.45-1.77-.6-3.62-1.74-5.17a2.48,2.48,0,0,1-.33-1.51c.13-2.88-1.34-5.56-1-8.47a8.11,8.11,0,0,0-.29-2.32c-.42-2.31-.79-4.63-1.32-6.92a33.31,33.31,0,0,0-1.44-4.44,12.47,12.47,0,0,1-.81-4.55c0-3.2.24-6.51-1.31-9.54a2.49,2.49,0,0,1-.43-1.47c.88-3.57-.71-7.2.3-10.76-.56-3.39,0-6.72.54-10.06a12.4,12.4,0,0,1,.54-2.67,10.22,10.22,0,0,0,.43-5.41,13.08,13.08,0,0,1,0-3.48A18.46,18.46,0,0,1,313,389.1a5.36,5.36,0,0,0,1-2.91c0-3,1.1-5.64,2.12-8.28,1.21-3.17,2.53-6.25,2.91-9.69a10.41,10.41,0,0,1,1.72-5.17,3.5,3.5,0,0,0,.58-1.44c.64-3.68,2.58-6.81,4.27-10a18.5,18.5,0,0,1,5.91-6.19c1.58-1.13,3.16-2.24,4.75-3.36a11.86,11.86,0,0,1,2.28-1.51c2.53-1,4.23-3.08,6.14-4.77,3.83-3.38,8.09-6.05,12.81-7,3.83-.76,7.7-1.32,11.55-2,.77-.13,1.53-.29,2.29-.49a54.87,54.87,0,0,1,7.15-1.86c2.71-.34,5.28-1.13,7.92-1.7a22.83,22.83,0,0,1,5-.38c2.08,0,4.16.24,6.23.42a25.68,25.68,0,0,1,4.66.54,39.85,39.85,0,0,0,9.66,1.3c2.2.06,4.39.57,6.58.84,1.68.21,3.4.17,5,.54a140.64,140.64,0,0,1,16.93,4.58c3.14,1.14,5.68,3.17,8.48,4.82,2.32,1.38,4.53,2.9,7,4.14a27,27,0,0,1,9.65,8.39A12.52,12.52,0,0,0,467.3,350a24.44,24.44,0,0,1,6.93,10.68,47.51,47.51,0,0,1,2.45,7.4c.67,3.83,1.06,7.72,1.73,11.56a3.46,3.46,0,0,1,.09.78c-.08,4.31-.16,8.62-.27,12.93a5.33,5.33,0,0,1-.33,1.91,3.56,3.56,0,0,0,.28,3.36,6.94,6.94,0,0,1,.64,2.19c.31,1.66.6,3.33.84,5a4.74,4.74,0,0,1-4.31,5.07,25.26,25.26,0,0,1-2.74-.21,41.15,41.15,0,0,0-4.69-.37,61,61,0,0,1-11.68-1.25c-2.31-.38-4.65-.58-7-.84a5.57,5.57,0,0,1-1.16,0c-4.18-1.41-8.48-1-12.78-1a64.12,64.12,0,0,0-9.7.69c-1.41.21-2.79.61-4.18.94a4.45,4.45,0,0,1-5.53-3,3.39,3.39,0,0,1-.15-.77c-.21-3.77-.7-7.54.2-11.29.36-1.52.75-3,1-4.57a8.33,8.33,0,0,0,0-2.34,77.22,77.22,0,0,1-.77-7.76c0-2-1.36-3.34-2.87-4.48a1.72,1.72,0,0,0-1.06-.41c-2.06.31-4.1-.45-6.21.21a22.56,22.56,0,0,1-5.42.51c-3.1.15-5,1.92-6.28,4.54-.12.23-.14.51-.25.75-1.14,2.6-2.37,5.06-2.12,8.15.23,2.82-.58,5.65-.27,8.57a100.45,100.45,0,0,1,.14,10.56,6.85,6.85,0,0,1-.37,1.5,29.26,29.26,0,0,0-.57,6.54c-.11,4.46,1.15,8.84.84,13.23-.27,3.77.29,7.56-.5,11.3a15.25,15.25,0,0,0,.06,2.33c-.12,3.12.34,6.21.12,9.37-.19,2.79.66,5.71,1.41,8.47a15.19,15.19,0,0,1,.71,4.17c-.05,5.48,1.91,10.48,3.92,15.44a4.64,4.64,0,0,0,4.25,3c2.21.09,4.56.36,6.61-.26,2.41-.73,4.55-2.33,6.8-3.55a.61.61,0,0,0,.27-.28c1.27-3.47,4.3-6.34,3.61-10.48a2.66,2.66,0,0,1-.07-.39,36.57,36.57,0,0,0-2.35-15.35,6.82,6.82,0,0,1-.27-1.93c-.16-2.41,1.5-4.24,3.78-3.68a13.24,13.24,0,0,0,6.9-.22c1.29-.34,2.82.15,4.24.34a19.46,19.46,0,0,0,5.44-.11,49.24,49.24,0,0,1,7.78-.2,9.45,9.45,0,0,0,4.16-.77c6.92-3,14.15-3.39,21.53-2.31C471.23,443.81,472.26,443.79,473.73,443.88Z"/><path d="M737.2,661.66c4.49,2,8.5,3.56,12.23,5.6,4.23,2.32,8.83,4.14,12.16,7.9a13.81,13.81,0,0,1,2.89,4.46,37.12,37.12,0,0,0,1.73,4.3,7.12,7.12,0,0,1,.94,3.38,4.85,4.85,0,0,0,.44,2.05,20.52,20.52,0,0,1,1.81,6.13,15.67,15.67,0,0,0,1.37,4.75c1.7,3.51,1.49,7.12.27,10.73-.83,2.48-1.88,4.9-2.47,7.44s-2.2,4.72-3.13,7.16c-2.58,2.76-4.4,6.15-7.28,8.68-2.58,2.27-4.79,5-7.5,7.07-3,2.28-5.94,4.66-10,5.07-1.94.2-3.81,1.15-5.71,1.78a16.17,16.17,0,0,1-2.67,1,48.47,48.47,0,0,0-10,2.57,5.54,5.54,0,0,1-2.46.26c-3.45-.42-6.88.12-10.32.11a6.81,6.81,0,0,0-2.12.25,20.26,20.26,0,0,1-7.35.83,45,45,0,0,0-8.83.18,14.8,14.8,0,0,1-3.18-.12,8.5,8.5,0,0,0-1.41-.13c-2.35.27-4.69.64-7,.88-2.59.26-5.2.47-7.81.61-2.35.13-4.71.14-7.06.19s-4.76.13-7.14.11c-2.12,0-4.27.47-6.37-.36a2.46,2.46,0,0,0-1.4-.06c-3.17.65-6.36.41-9.56.38-3,0-5.9.53-8.86.69-5.33.3-10.63,1.21-16,.9a8.51,8.51,0,0,1-3.06-.76,3.69,3.69,0,0,1-2.1-2.74c-.33-1.86-1-3.66-.7-5.63a13.94,13.94,0,0,0-.2-2.47c0-1.77-.07-3.53,0-5.3a17.52,17.52,0,0,0,.33-3.18c-.47-3.05-.57-6.14-1-9.17a43,43,0,0,1-.4-9.94c.25-2.94.24-5.91.55-8.85a105.11,105.11,0,0,0,0-16c-.14-2.71.54-5.46-.42-8.14a2.25,2.25,0,0,1,.11-1,26.3,26.3,0,0,0,.36-7.09c-.16-3.92-.2-7.84-.19-11.77s.2-7.59.24-11.39c0-1.18-.19-2.35-.26-3.53s-.18-2.37-.16-3.56a69.61,69.61,0,0,0-.48-10.6,112.48,112.48,0,0,1-.92-18.08c.09-4,1-8,.34-12.09.74-2.59,0-5.18.05-7.78,0-1.88.18-3.76.16-5.64s-.36-3.54-.27-5.3a39.49,39.49,0,0,0-.21-8.14l-1.93-1.77c.4-.91.71-1.8,1.15-2.62a2.52,2.52,0,0,1,1.94-1.42c3.75-.57,7.49-1.22,11.25-1.69a21.89,21.89,0,0,1,3.18.34,67.53,67.53,0,0,0,7.4.37c2.35-.17,4.72.23,7.11.21s5,.28,7.4-.51a4.71,4.71,0,0,1,1.75.18,6.4,6.4,0,0,0,1.77.19c3.57-.67,7.11.07,10.67.15a13.52,13.52,0,0,0,1.42.08c6.16-.53,12.33.17,18.49,0a9,9,0,0,1,2.84.29c2.22.69,4.48.49,6.73.49,4.63,0,9.26-.08,13.89-.07,1.3,0,2.6.21,3.9.32s2.84.21,4.26.36,3.11.68,4.55.42,2.79.38,4.16.6c1,.18,2.11.4,3.17.48a37.61,37.61,0,0,1,4.15.83c2.83.56,5.37,1.81,8.05,2.71,2.46.83,4.91,1.66,7.35,2.51a5.3,5.3,0,0,1,1.93.91,20.33,20.33,0,0,0,7,4.08c3.17,1.3,5.12,3.78,7.38,5.95,3.07,2.94,4.62,6.85,6,10.78a10.33,10.33,0,0,1,.24,2.11,15.71,15.71,0,0,0,.56,3.86c1.44,3.55,1.22,7.21,1.09,10.9a12.23,12.23,0,0,0,.09,2.84,26.37,26.37,0,0,1-.12,9.5,6.54,6.54,0,0,1-.85,2.29c-1.5,2.54-3,5.12-4.68,7.52a92.94,92.94,0,0,1-6,7.45,43.47,43.47,0,0,1-5.71,4.75,16.68,16.68,0,0,0-2.45,2,15.35,15.35,0,0,1-6.35,4.46A26.88,26.88,0,0,0,737.2,661.66Zm-61.33,50.45a20.5,20.5,0,0,1,7.83.24,24.5,24.5,0,0,0,5.64.53c4.09-.26,7.79-1.9,11.39-3.75a2.4,2.4,0,0,0,.77-.72,23.05,23.05,0,0,0,4-9.73c.83-5,.8-5-1.7-9.34a3.8,3.8,0,0,0-1.35-1.61c-2.54-1.2-5.16-2.24-7.75-3.33-.1,0-.24,0-.35,0-2.33-.42-4.71-.26-7-.47a60.15,60.15,0,0,0-6.3,0c-.71,0-1.41.1-2.11.11-1.78,0-2.41.61-2.31,2.3.23,3.88.59,7.76.74,11.65s.44,7.83-1.18,11.57A10.89,10.89,0,0,0,675.87,712.11Zm1-76.45c0,1.77,0,3.54,0,5.3a1.89,1.89,0,0,0,1.65,2,33.56,33.56,0,0,0,5.3.27c1.88-.07,3.77-.62,5.62-.52a8.94,8.94,0,0,0,5.39-1.47c1.6-1,3-2.32,4.57-3.38a5.21,5.21,0,0,0,2.32-4.12,54.67,54.67,0,0,1,1.2-8,9.58,9.58,0,0,0,0-4.23c-.46-2.2-1.65-3.88-4.17-4.26a34.56,34.56,0,0,1-4.44-1.17,5.62,5.62,0,0,0-3.49-.12,4.17,4.17,0,0,1-2.41.16c-3.64-1.22-7.28.16-10.93-.13a1.86,1.86,0,0,0-1.87,2.46,18.87,18.87,0,0,1,.07,6.36,6.74,6.74,0,0,0,.32,2.79C677.05,630.23,676.85,633,676.92,635.66Z"/><path d="M537,755.22c-3.28-2.06-4.11-4.84-4.66-7.83-.63-3.49-.73-7.12-2.78-10.46a3.6,3.6,0,0,0-2.86-.17,12.73,12.73,0,0,1-6.34.27,2.19,2.19,0,0,0-1.05-.13c-2.33.76-4.7.43-7.07.39-3.68,0-7.36,0-11,0-.6,0-1.2-.06-1.79,0a1.84,1.84,0,0,0-1.91,2.08c0,.48.06.95.1,1.43s.26,1,.11,1.41c-1.05,2.75-.47,5.67-.94,8.47a17.72,17.72,0,0,1-1.21,4.08c-.85,2-4.29,3.56-6.33,2.91-2.7-.86-5.37-1.83-8.42-2.89-4.18,0-8.78-.11-13.39-.12a33.57,33.57,0,0,0-3.88.27c-2.47.3-4.92.74-7.38,1-2.71.28-5.39.87-8.15.63a7.12,7.12,0,0,0-2.42.44,4.74,4.74,0,0,1-5.6-1.8c-.49-.67-.93-1.38-1.36-2.09a4.57,4.57,0,0,1-.4-4.73,9.71,9.71,0,0,0,.84-4.49,21.27,21.27,0,0,1,.72-4.92c.58-2.55,1.28-5.08,1.92-7.61.44-1.72.91-3.43,1.29-5.16a28.2,28.2,0,0,1,2.24-7.1c1.3-2.51.93-5.31,1.09-8,.26-4.6.57-9.21,1.08-13.8a12,12,0,0,1,2-5.65,15.29,15.29,0,0,0,2.09-5.66,13.88,13.88,0,0,1,.63-2.4c2-4.94,3.2-10.16,5.06-15.16.91-2.42,1.73-4.86,2.77-7.24.89-2,1-4.38,1.49-6.58a17.55,17.55,0,0,1,.69-2.38c1-2.56,2-5.09,2.94-7.65a6.42,6.42,0,0,0,.63-2c.11-4.37,2.11-8.26,3.1-12.4.83-3.46,1.51-7,2.26-10.42.17-.81.34-1.63.53-2.43.49-2.07,1.65-4,1.55-6.19s.77-4.14.6-6.34a11.9,11.9,0,0,1,.95-5.57,16,16,0,0,0,1.4-6.9,5.66,5.66,0,0,1,1.13-3.67,14.21,14.21,0,0,0,2.47-7.62c.18-2.23.7-4.44,1-6.51l2.2-1.85,7.15-.71c3.05-.3,6-1.42,9.16-.73,4-1.15,8,0,12-.42,3,1.17,6.07-.37,9.14.4,1.63.41,3.51-.29,5.29-.37A140,140,0,0,0,542,569.45a8.84,8.84,0,0,1,2.78.26c2.57.41,5.07,1.11,7.75.47,1.74-.41,3.58-.22,4.73,1.62a3.16,3.16,0,0,1,.51,3,4.37,4.37,0,0,0-.23,2.06c.37,3,.84,5.88,1.25,8.82.2,1.5.28,3,.53,4.52a21.62,21.62,0,0,0,.95,4.14c.71,1.87,1.68,3.65,2.54,5.46a8.55,8.55,0,0,1,.89,1.89,12.13,12.13,0,0,0,1.22,2.9,19.51,19.51,0,0,1,1.61,5c.86,4.42,1.86,8.81,2.28,13.32a38.52,38.52,0,0,0,2.63,10.35c1.2,3.08,2,6.31,3.07,9.43a67,67,0,0,0,2.9,7.26,84.53,84.53,0,0,1,3.6,9.67c.38,1.12.86,2.21,1.25,3.33.23.66.36,1.36.53,2l.72,3.11c.51,2.29,1.55,4.41,1.79,6.82a36.2,36.2,0,0,0,1.62,5.81,19.38,19.38,0,0,1,.81,3.47A23.37,23.37,0,0,0,591,694a10.23,10.23,0,0,1,1.43,5,27.78,27.78,0,0,0,1.21,5.89,15.47,15.47,0,0,1,.74,5.62,8.2,8.2,0,0,0,.34,2.43c.07.34.35.66.36,1,.11,5.6,3.21,10.38,4.28,15.71,1.79,3.34,2,7,2.38,10.67a19.94,19.94,0,0,0,1.16,6.21,14.25,14.25,0,0,1,.55,3.11c.42,2.23-.27,3.72-2.32,4.52a7.79,7.79,0,0,1-3.1.64c-3.32-.14-6.63-.44-9.93.22-2.61-.8-5.16,0-7.73.23a14.93,14.93,0,0,0-1.76.26c-3.4.66-6.79,1.33-10.26.48a2.37,2.37,0,0,0-1.06,0c-2.63.65-5.18-.13-7.77-.31-4.47-.32-8.92-.95-13.45-.52C543,755.46,539.9,755.22,537,755.22ZM514,642.36c-.37.29-.52.35-.55.44-.83,2.71-1,5.62-2.43,8.15-.22.39-.1.95-.21,1.41-.85,3.44-.45,7-1.37,10.49a47.69,47.69,0,0,0-1.1,6.66c-.45,3.76-1,7.53-1.08,11.31a33.23,33.23,0,0,1-.27,4.58,33.61,33.61,0,0,0-.18,4.46c6.1.83,11.9,1,14.78.31-.23-2.54-.35-5.13-.74-7.69s-1.14-5.09-1.54-7.67-.52-5-.78-7.44a32.29,32.29,0,0,1-.42-3.51c0-4.07-.84-8-1.55-12-.29-1.62-.53-3.26-.76-4.9S515.37,643.66,514,642.36Z"/><path d="M674.94,438.24c.13-1.95.27-3.9.4-5.85a18.12,18.12,0,0,0,.16-3.11c-.53-4.83,0-9.63.19-14.45a6.27,6.27,0,0,0-1.37-4.65c-1.92-2.34-1.28-4.62,1.23-6.33a7.47,7.47,0,0,1,4.08-1.15,48.3,48.3,0,0,0,8.18-.7c3.64-.81,7.28-.66,10.93-.73,2.6,0,5.21,0,7.8-.18a47.19,47.19,0,0,1,10.08.1,38.09,38.09,0,0,0,6.22-.08c2.85-.05,5.7-.11,8.55-.08,3.39,0,6.78.21,10.17.22a28.51,28.51,0,0,1,10.4,1.59,8.49,8.49,0,0,0,7.52-.81c2-1.15,4-1,6.08-1s3.58,2.24,3.7,4.85c.1,2.08,0,4.18,0,6.27a40.08,40.08,0,0,1-.28,7c-.58,2.91.06,5.7.13,8.55a36,36,0,0,0,.6,4.24c.09.64.23,1.28.27,1.92.2,3.38.35,6.75.56,10.12.11,1.79-.19,3.44-1.74,4.53a6.1,6.1,0,0,1-4.38,1c-3.45-.32-7-.93-10.4.64a3.88,3.88,0,0,1-1.49.05,22.11,22.11,0,0,0-2.7,0,101.77,101.77,0,0,1-11.71.42c-4.56,0-9.12.09-13.68.09-1.29,0-2.59-.16-3.88-.28-.78-.07-1.63-.47-2.31-.26-2,.62-3.89-.21-5.74-.6a12.24,12.24,0,0,0-4.62-.32,4.31,4.31,0,0,1-1.56,0c-3.67-.82-7.27,0-10.91.34a48.23,48.23,0,0,1-11.33.22,19.12,19.12,0,0,1-6.87-2.71,4.72,4.72,0,0,1-2.42-4.6c.06-1.43,0-2.87,0-4.31Z"/><path d="M447.61,608.53c-.4-2.47-.74-4.94-1.17-7.41-.64-3.61.22-7.06,1-10.52a16.89,16.89,0,0,1,.45-1.73c1.23-3.56,1-7.23.82-10.88-.1-2.23-1.61-3.62-3.43-5.26-3.71-.21-7.72-.68-11.72-.58-2.85.07-5.62-.4-8.41-.44-3.05,0-6.14-.87-9.18.25a5.21,5.21,0,0,1-1.77.14c-4.17-.05-8.34,0-12.49-.22-3.78-.19-7.54-.7-11.31-1.06a7.71,7.71,0,0,0-2.13-.11,13.57,13.57,0,0,1-4.88,0c-1.95-.3-4,.16-6,.21a103,103,0,0,0-12.77,1,54.18,54.18,0,0,1-6.75.09,43.28,43.28,0,0,0-11.24,1.76,24.78,24.78,0,0,1-8.79,1.06,75.7,75.7,0,0,0-9.63.3,9.11,9.11,0,0,1-4.78-1.1,12.92,12.92,0,0,0-3.29-1.26,3.19,3.19,0,0,0-3.43,1.41,3,3,0,0,0,0,3.68,5.19,5.19,0,0,1,.91,3.66,30.62,30.62,0,0,0,.58,7,25.68,25.68,0,0,1,.25,9.22,63.47,63.47,0,0,0-.78,7.78A48.22,48.22,0,0,1,315.73,617a7.45,7.45,0,0,0-.42,4.2,1.45,1.45,0,0,1,.07.71c-.84,3.78,0,7.6-.31,11.39a8.32,8.32,0,0,0,.38,3.12,42.57,42.57,0,0,1,1.65,9.8c.15,3.67.72,7.32,1,11a97.14,97.14,0,0,1,.17,13.54c-.12,2.25-.26,4.5-.5,6.74-.46,4.15-.11,8.29-.17,12.44,0,1.18-.18,2.37-.11,3.55a26.63,26.63,0,0,1-1,9.8c.66,4-.39,8,.07,12.05a36,36,0,0,1-.48,9.25,43.8,43.8,0,0,0-.31,10c.22,2.6.23,5.2.39,7.8a39.72,39.72,0,0,1,0,5c-.11,1.54.61,2.95.37,4.57-.32,2.12,1.85,4,4.06,4a2,2,0,0,0,.35,0c4.87-1,9.66.14,14.47.52a31.43,31.43,0,0,0,9.87-.4,8.39,8.39,0,0,1,2.83,0c3.21.36,6.39.8,9.5-.59.44-.2,1.11.11,1.68.16a7.31,7.31,0,0,0,2.44.16c2.5-.66,4.95.29,7.42,0s5-.49,7.46-.61c1.77-.08,3.56.18,5.32,0a11.73,11.73,0,0,0,3.76-1,4.77,4.77,0,0,0,3.08-5.14c-.63-5.1-.19-10.18-.11-15.28a54,54,0,0,0-.75-11,39.79,39.79,0,0,1-.86-11.65,22.74,22.74,0,0,0-.15-4.28c-.35-4.15.51-8.33-.28-12.47.58-2.78.15-5.58.09-8.38a5,5,0,0,0,.84-.16c.62-.19,1.4.17,2.1.23,1.18.11,2.36.26,3.54.26,4.15,0,8.3-.07,12.45-.09a90.28,90.28,0,0,0,10.66-.38,20.19,20.19,0,0,1,2.46,0,3.62,3.62,0,0,0,1.36,0c3.08-1.43,6.32-.87,9.46-.58a5.53,5.53,0,0,0,4-1c1.41-1,1.69-2.48,1.59-4.12-.19-3.07-.33-6.14-.52-9.21,0-.58-.16-1.16-.24-1.75a31.71,31.71,0,0,1-.54-3.86c-.07-2.59-.65-5.14-.13-7.79a36.7,36.7,0,0,0,.26-6.39c0-1.91.1-3.82,0-5.71-.11-2.38-1.6-4.4-3.37-4.41s-3.74-.13-5.54.91a7.67,7.67,0,0,1-6.84.74,25.82,25.82,0,0,0-9.47-1.45c-3.09,0-6.17-.17-9.26-.2-2.59,0-5.19,0-7.78.07-.68,0-1.36.06-2,.11a31.09,31.09,0,0,0-.65-8.43c-.38-1.48-.27-3.08-.54-4.6a36.88,36.88,0,0,0-1.17-4.48c-.3-1-.51-1.82,0-2.49a63.11,63.11,0,0,1,6.8-1,94.36,94.36,0,0,1,10,.06c1.41.08,2.79.53,4.24.26.33-.07.7.12,1.06.12,2.15,0,4.1,1.13,6.26,1s4.27-.17,6.39-.32a29.22,29.22,0,0,0,3.5-.51c2.21-.44,4.4-1,6.68-.65a6.87,6.87,0,0,0,1.43.08,31.93,31.93,0,0,1,8.44.72,5.49,5.49,0,0,0,2.45,0c3.46-.81,4.37-1.86,4.18-5.48A62.49,62.49,0,0,0,447.61,608.53Z"/><path d="M664.26,450.58a9.64,9.64,0,0,0,0-1.52c-.38-5.41-.84-10.82-1.16-16.23-.19-3.4-.26-6.8-.23-10.2a87.07,87.07,0,0,1,.45-9.83,32.5,32.5,0,0,0,0-7.57c-.26-2.36-.34-4.74-.47-7.09-.12-2.15.09-4.24-.91-6.27a10.49,10.49,0,0,1-.48-2.61c-.52-2.85-1.16-5.68-1.54-8.56-.35-2.6-1.12-5.19-.5-7.89a4.85,4.85,0,0,0-.54-3.3c-.8-1.55-1.41-3.2-2.2-5a21.28,21.28,0,0,0,2-1.26c.83-.67.75-1.93-.21-2.09-2-.32-3.12-1.65-4.05-3.16-1.51-2.46-2.95-5-4.24-7.57a40.52,40.52,0,0,0-4.33-6.18c-4.17-2.62-7.37-6.53-11.85-8.74a17.76,17.76,0,0,1-1.53-1.09c-3.64-2.27-7.18-4.69-11.48-5.64A19.11,19.11,0,0,1,615.7,327a8.63,8.63,0,0,0-4.69-1.16,5,5,0,0,1-4.16-1.41,2.47,2.47,0,0,0-1.67-.76c-2.18.1-4.25-.55-6.38-.71-4.4-.32-8.79-1-13.23-.7-1.38.09-2.75.27-4.13.33-4.26.21-8.53.14-12.79.56-1.85.18-3.7.79-5.62.3a2.86,2.86,0,0,0-1.81.46c-2.56,1.38-5.43,1-8.14,1.49-5.11-.82-9.73,1.17-14.42,2.58-3.38,1-6.59,2.53-9.93,3.7a26.46,26.46,0,0,0-6.8,3.26,9.92,9.92,0,0,1-4.58,1.55,19.16,19.16,0,0,0-7.18,2.16,27.4,27.4,0,0,0-7.95,6.93,7.32,7.32,0,0,1-1.74,2,16.12,16.12,0,0,0-6.77,8.81c-1,2.72-2.63,5.2-3.59,7.93a26.91,26.91,0,0,0-1.8,8.09,45,45,0,0,1-1.28,8.14c-.36,1.72-.77,3.45-1,5.2-.31,2.77-.48,5.55-.65,8.32-.18,3-.41,6.05-.41,9.07,0,3.79.2,7.58.33,11.36.06,1.62.23,3.24.26,4.86q.13,8.89.2,17.79c0,1.76-.12,3.53,0,5.28.19,3.37-.42,6.69.18,10.13.82,4.69,2.58,9.24,2.42,14.1,0,.36.26.72.33,1.09.21,1.11.4,2.22.59,3.34s.39,2.23.55,3.34a51.43,51.43,0,0,0,2.43,9.13c.61,1.78,1.18,3.54,1.94,5.29,1.46,3.33,2.24,6.95,4.44,10,.49,2.5,2.1,4.29,3.83,6,2.18,2.12,4.4,4.19,6.62,6.26a31.56,31.56,0,0,0,11.78,7.35,16.13,16.13,0,0,1,4.46,2,11.23,11.23,0,0,0,3.51,1.32q7.32,1.93,14.67,3.74a29.78,29.78,0,0,0,4.09.66c4.89.53,9.85-.9,14.71.5a.81.81,0,0,0,.38,0c4.17-.63,8.3-.13,12.44.3a8,8,0,0,0,2.27.14c3.6-.76,7.27,0,10.9-.69,3.82-.73,7.75-.66,11.57-1.75,3.26-.92,6.75-1,10.06-1.76a38.09,38.09,0,0,0,13.72-6.19,14.26,14.26,0,0,1,2.33-1.21c2.84-1.34,5.88-2.37,8.5-4.05a65,65,0,0,0,7.55-6.26c1.41-1.26,2.46-3,4-4a13.9,13.9,0,0,0,4.3-4.16c1.4-1.95,2.86-3.85,4.21-5.82a35.68,35.68,0,0,0,3.39-5.41c1.56-3.44,2.7-7.06,4.22-10.52a13,13,0,0,0,1.33-7,5.37,5.37,0,0,1,.07-1.13C664.28,461.68,663.77,456.11,664.26,450.58ZM631,431a5.31,5.31,0,0,1-2.86,3.37,43.29,43.29,0,0,1-7.07,2.68c-2.66.62-5.34,1.68-8.2,1a3,3,0,0,0-1.49.18c-4,1.31-8.2,1.27-12.33,1.73-3.35.38-6.68,0-10,.14a8.83,8.83,0,0,0-.14,1.34,30.36,30.36,0,0,0,.79,8.28,8.33,8.33,0,0,1,.48,2.22,37.72,37.72,0,0,0,1.76,11.21,2.29,2.29,0,0,1-1.06,2.94A2.5,2.5,0,0,0,589.7,468a14.37,14.37,0,0,1-4.31,7.82,33.78,33.78,0,0,1-3.93,3.56c-2.7,1.83-5.48,3.67-9.08,2.7a10.35,10.35,0,0,0-2.45,0c-3.22-2.18-4.85-5.43-6.53-8.47a13.66,13.66,0,0,1-1.57-8.81,6,6,0,0,0,.23-1.85c-.81-4.76-.28-9.55-.43-14.32a3.56,3.56,0,0,0-.11-1.51c-1.25-2.34-1-4.88-1.16-7.38h0l-.33,0a30.76,30.76,0,0,0-8.28.79,8,8,0,0,1-2.22.48,37.42,37.42,0,0,0-11.21,1.77,2.31,2.31,0,0,1-2.94-1.07,2.46,2.46,0,0,0-1.83-1.15,14.44,14.44,0,0,1-7.82-4.32,33,33,0,0,1-3.56-3.93c-1.83-2.7-3.67-5.48-2.7-9.08a10.34,10.34,0,0,0,0-2.45c2.18-3.22,5.43-4.85,8.47-6.53a13.66,13.66,0,0,1,8.81-1.57,6,6,0,0,0,1.86.23c4.75-.81,9.54-.28,14.31-.42a3.91,3.91,0,0,0,1.51-.11c2.27-1.22,4.74-1,7.18-1.15,0-.95,0-1.9,0-2.85,0-2.22-1-4.42-.76-6.73a25.42,25.42,0,0,0,0-3.38,9.85,9.85,0,0,0-.39-2.6,10.08,10.08,0,0,1-.68-4.07,3.69,3.69,0,0,0-.3-1.84c-1.43-2.82-.72-5.71-.26-8.55a4.9,4.9,0,0,1,2.92-4.16,2.31,2.31,0,0,0,.94-.62c2.3-2.74,5.59-3.85,8.69-5.18a11.28,11.28,0,0,1,8.47-.63,5.31,5.31,0,0,1,3.37,2.86,44.22,44.22,0,0,1,2.68,7.07c.62,2.66,1.67,5.34,1,8.2a2.86,2.86,0,0,0,.18,1.49c1.3,4,1.26,8.2,1.73,12.33.38,3.3,0,6.59.13,9.88,1.28.07,2.57.07,3.85.07,2.22,0,4.42-1,6.73-.76a25.42,25.42,0,0,0,3.38,0,9.85,9.85,0,0,0,2.6-.39,10.26,10.26,0,0,1,4.07-.68,3.69,3.69,0,0,0,1.84-.29c2.82-1.44,5.71-.73,8.55-.27a4.92,4.92,0,0,1,4.16,2.92,2.25,2.25,0,0,0,.62.94c2.74,2.3,3.85,5.59,5.18,8.69A11.28,11.28,0,0,1,631,431Z"/></svg>